<?xml version="1.0" encoding="iso-8859-1"?>
<!-- Generator: Adobe Illustrator 18.1.1, SVG Export Plug-In . SVG Version: 6.00 Build 0)  -->
<svg version="1.1" id="Capa_1" xmlns="http://www.w3.org/2000/svg" xmlns:xlink="http://www.w3.org/1999/xlink" x="0px" y="0px"
	 viewBox="0 0 307.886 307.886" style="enable-background:new 0 0 307.886 307.886;" xml:space="preserve">
<g>
	<path style="fill:#010002;" d="M7.646,288.651l2.203,2.203l-3.889,3.96c-1.605,1.632-5.896,9.943-3.497,12.363
		c2.399,2.415,10.574-1.974,12.178-3.606l3.922-3.998l2.187,2.187l73.65-13.037l-73.716-73.716L7.646,288.651z"/>
	<polygon style="fill:#010002;" points="26.764,206.265 103.134,282.635 246.127,138.756 169.757,62.386 	"/>
	<path style="fill:#010002;" d="M232.595,5.591l7.054,7.06l-53.548,53.548l54.053,54.053l53.548-53.548l6.842,6.842
		c11.194-11.194,5.053-35.479-13.712-54.244C268.069,0.538,243.789-5.602,232.595,5.591z"/>
</g>
<g>
</g>
<g>
</g>
<g>
</g>
<g>
</g>
<g>
</g>
<g>
</g>
<g>
</g>
<g>
</g>
<g>
</g>
<g>
</g>
<g>
</g>
<g>
</g>
<g>
</g>
<g>
</g>
<g>
</g>
</svg>
